<?xml version="1.0" encoding="utf-8"?>
<!-- Generator: Adobe Illustrator 23.0.1, SVG Export Plug-In . SVG Version: 6.00 Build 0)  -->
<svg version="1.0" id="Camada_1" xmlns="http://www.w3.org/2000/svg" xmlns:xlink="http://www.w3.org/1999/xlink" x="0px" y="0px"
	 width="121.1" height="22.8" viewBox="0 0 121.1 22.8" style="enable-background:new 0 0 121.1 22.8;" xml:space="preserve">
<style type="text/css">
	.st0{fill-rule:evenodd;clip-rule:evenodd;fill:#C8D100;}
	.st1{fill-rule:evenodd;clip-rule:evenodd;fill:#97BE0D;}
	.st2{fill-rule:evenodd;clip-rule:evenodd;fill:#FEFEFE;}
</style>
<g>
	<path class="st0" d="M13.5,15.1l4.5,4.6v3.2l-4.5-4.5l0,0l-3.9,3.9L9,22.8l0,0l-4.5-4.5v0l-0.4,0.4L0,22.8v-3.2L4.5,15L9,19.6
		C9,19.6,13.5,15.1,13.5,15.1z M4.5,14.7L0,19.2v-3.1l4.5-4.5L9,16.1l4.5-4.5l4.5,4.6v3.1l-4.5-4.6L9,19.2L4.5,14.7L4.5,14.7z"/>
	<path class="st0" d="M9,12.2l-0.5-0.5l-4-4V4.5L9,9.1l0.6-0.6L18.1,0v3.2L9,12.2L9,12.2z M4.5,11.2V8.1L9,12.6l9-9.1v3.1l-9,9.1
		L4.5,11.2L4.5,11.2z"/>
	<path class="st1" d="M0,16.1l4.5-4.5v3.1L0,19.2V16.1z M0,22.8v-3.2l4.5-4.5v3.2l-0.4,0.4L0,22.8z M18.1,0v3.2l-9,9.1V9.1l0.6-0.6
		C9.6,8.5,18.1,0,18.1,0z M9,15.7L9,15.7l0-3.1l9-9.1v3.1C18.1,6.6,9,15.7,9,15.7z M9,16.1l4.5-4.5v3.1L9,19.2V16.1z M13.6,18.2
		L13.6,18.2L13.6,18.2L9,22.8l0,0v-3.2l4.5-4.5L13.6,18.2L13.6,18.2z"/>
	<path class="st0" d="M9,12.6v3.1l-4.5-4.5V8.1L9,12.6z M9,16.1v3.1l-4.5-4.5v-3.1L9,16.1z M4.5,18.2v-3.2L9,19.6v3.2l0,0L4.5,18.2
		L4.5,18.2C4.5,18.2,4.5,18.2,4.5,18.2z M9,9.1L9,9.1l0,3.1l0,0l-0.5-0.5l-4-4V4.5L9,9.1z M18.1,16.1v3.1l-4.5-4.5v-3.1L18.1,16.1z
		 M18.1,22.8L14,18.7l-0.4-0.4v-3.2l4.5,4.5V22.8z"/>
	<path class="st2" d="M22.1,5.3C23,5.1,24.2,5,26,5c1.8,0,3.1,0.3,3.9,1c0.8,0.6,1.4,1.7,1.4,3c0,1.3-0.4,2.3-1.2,3
		c-1,0.9-2.5,1.3-4.2,1.3c-0.4,0-0.7,0-1-0.1V18h-2.9V5.3z M24.9,11.1V7.3c0.2-0.1,0.6-0.1,1.2-0.1c1.5,0,2.3,0.7,2.3,1.9
		c0,1.3-1,2.1-2.5,2.1C25.5,11.2,25.2,11.2,24.9,11.1z M39.4,15.7c0,0.9,0,1.7,0.2,2.2H37L36.8,17h-0.1c-0.6,0.7-1.6,1.1-2.7,1.1
		c-1.9,0-3-1.4-3-2.9c0-2.4,2.2-3.6,5.5-3.6v-0.1c0-0.5-0.3-1.2-1.7-1.2c-1,0-2,0.3-2.6,0.7l-0.5-1.9c0.6-0.4,1.9-0.8,3.6-0.8
		c3.1,0,4.1,1.8,4.1,4C39.4,12.5,39.4,15.7,39.4,15.7z M40.7,11.7c0-1.4,0-2.3-0.1-3.1h2.5l0.1,1.7h0.1c0.5-1.4,1.6-1.9,2.5-1.9
		c0.3,0,0.4,0,0.6,0.1v2.7c-0.3,0-0.5-0.1-0.8-0.1c-1.1,0-1.8,0.6-2,1.5c0,0.2-0.1,0.4-0.1,0.6v4.7h-2.9
		C40.7,17.9,40.7,11.7,40.7,11.7z M54.4,15.7c0,0.9,0,1.7,0.2,2.2H52L51.8,17h-0.1c-0.6,0.7-1.6,1.1-2.7,1.1c-1.9,0-3-1.4-3-2.9
		c0-2.4,2.2-3.6,5.5-3.6v-0.1c0-0.5-0.3-1.2-1.7-1.2c-1,0-2,0.3-2.6,0.7l-0.5-1.9c0.6-0.4,1.9-0.8,3.6-0.8c3.1,0,4.1,1.8,4.1,4
		C54.4,12.5,54.4,15.7,54.4,15.7z M55.7,11.6c0-1.2,0-2.1-0.1-3h2.5l0.1,1.3h0.1c0.4-0.6,1.3-1.5,2.9-1.5c1.9,0,3.3,1.3,3.3,4V18
		h-2.9v-5.2c0-1.2-0.4-2-1.5-2c-0.8,0-1.3,0.6-1.5,1.1c-0.1,0.2-0.1,0.5-0.1,0.7V18h-2.9L55.7,11.6L55.7,11.6z M73.6,15.7
		c0,0.9,0,1.7,0.2,2.2h-2.6L71,17h-0.1c-0.6,0.7-1.6,1.1-2.7,1.1c-1.9,0-3-1.4-3-2.9c0-2.4,2.2-3.6,5.5-3.6v-0.1
		c0-0.5-0.3-1.2-1.7-1.2c-1,0-2,0.3-2.6,0.7l-0.5-1.9c0.6-0.4,1.9-0.8,3.6-0.8c3.1,0,4.1,1.8,4.1,4L73.6,15.7L73.6,15.7z M72.7,4.6
		l-2.3,2.9h-2l1.6-2.9L72.7,4.6L72.7,4.6z M75,5.3C75.8,5.2,77.3,5,78.7,5c1.8,0,2.9,0.2,3.8,0.7c0.9,0.5,1.5,1.4,1.5,2.5
		c0,1.1-0.7,2.2-2.1,2.7v0c1.5,0.4,2.6,1.5,2.6,3.1c0,1.2-0.5,2.1-1.3,2.7c-0.9,0.7-2.5,1.2-5,1.2c-1.4,0-2.5-0.1-3.1-0.2V5.3z
		 M93.2,15.7c0,0.9,0,1.7,0.2,2.2h-2.6L90.5,17h-0.1c-0.6,0.7-1.6,1.1-2.7,1.1c-1.9,0-3-1.4-3-2.9c0-2.4,2.2-3.6,5.5-3.6v-0.1
		c0-0.5-0.3-1.2-1.7-1.2c-1,0-2,0.3-2.6,0.7l-0.5-1.9c0.6-0.4,1.9-0.8,3.6-0.8c3.1,0,4.1,1.8,4.1,4C93.2,12.5,93.2,15.7,93.2,15.7z
		 M94.5,11.6c0-1.2,0-2.1-0.1-3h2.5L97,9.9h0.1c0.4-0.6,1.3-1.5,2.9-1.5c1.9,0,3.3,1.3,3.3,4V18h-2.9v-5.2c0-1.2-0.4-2-1.5-2
		c-0.8,0-1.3,0.6-1.5,1.1c-0.1,0.2-0.1,0.5-0.1,0.7V18h-2.9L94.5,11.6L94.5,11.6z M111.6,17.7c-0.5,0.2-1.5,0.4-2.6,0.4
		c-3,0-4.9-1.8-4.9-4.8c0-2.7,1.9-4.9,5.3-4.9c0.8,0,1.6,0.1,2.2,0.4l-0.5,2.2c-0.3-0.2-0.9-0.3-1.6-0.3c-1.5,0-2.5,1.1-2.5,2.6
		c0,1.7,1.1,2.6,2.5,2.6c0.7,0,1.2-0.1,1.7-0.3L111.6,17.7L111.6,17.7z M121.1,13.2c0,3.4-2.4,5-4.9,5c-2.7,0-4.8-1.8-4.8-4.8
		c0-3,2-4.9,5-4.9C119.2,8.4,121.1,10.4,121.1,13.2z M36.6,13.6c-1.5,0-2.7,0.4-2.7,1.5c0,0.7,0.5,1.1,1.1,1.1
		c0.7,0,1.3-0.5,1.5-1.1c0-0.2,0.1-0.3,0.1-0.5C36.6,14.6,36.6,13.6,36.6,13.6z M51.6,13.6c-1.5,0-2.7,0.4-2.7,1.5
		c0,0.7,0.5,1.1,1.1,1.1c0.7,0,1.3-0.5,1.5-1.1c0-0.2,0.1-0.3,0.1-0.5C51.6,14.6,51.6,13.6,51.6,13.6z M70.8,13.6
		c-1.5,0-2.7,0.4-2.7,1.5c0,0.7,0.5,1.1,1.1,1.1c0.7,0,1.3-0.5,1.5-1.1c0-0.2,0.1-0.3,0.1-0.5C70.8,14.6,70.8,13.6,70.8,13.6z
		 M77.9,10.2h0.9c1.5,0,2.3-0.6,2.3-1.6c0-1-0.7-1.5-2.1-1.5c-0.6,0-1,0-1.2,0.1C77.9,7.2,77.9,10.2,77.9,10.2z M77.9,15.9
		c0.3,0,0.6,0,1.1,0c1.3,0,2.5-0.5,2.5-1.9c0-1.3-1.2-1.8-2.6-1.8h-1V15.9z M90.4,13.6c-1.5,0-2.7,0.4-2.7,1.5
		c0,0.7,0.5,1.1,1.1,1.1c0.7,0,1.3-0.5,1.5-1.1c0-0.2,0.1-0.3,0.1-0.5L90.4,13.6L90.4,13.6z M114.4,13.3c0,1.6,0.7,2.8,1.9,2.8
		c1.1,0,1.8-1.1,1.8-2.8c0-1.4-0.5-2.8-1.8-2.8C114.9,10.5,114.4,11.9,114.4,13.3z"/>
</g>
</svg>
